/* XPM */
static char *charup1668684444[] = {
/* columns rows colors chars-per-pixel */
"32 32 149 2 ",
"   c #00183A",
".  c #002D3D",
"X  c #26323F",
"o  c #47503D",
"O  c #4C553B",
"+  c #565F37",
"@  c #545C3B",
"#  c #5B5F3E",
"$  c #5C613E",
"%  c #5D7935",
"&  c #5B7739",
"*  c #606437",
"=  c #62653D",
"-  c #64693C",
";  c #001F41",
":  c #031F4A",
">  c #051E57",
",  c #0C1D5C",
"<  c #10204D",
"1  c #162D4F",
"2  c #1E2B4E",
"3  c #0D2452",
"4  c #0F215D",
"5  c #1A2857",
"6  c #15235D",
"7  c #18265D",
"8  c #16295A",
"9  c #1C2A5B",
"0  c #232B4D",
"q  c #292D4E",
"w  c #263340",
"e  c #2F3547",
"r  c #303548",
"t  c #3E3E49",
"y  c #222A56",
"u  c #2D2E54",
"i  c #242B5B",
"p  c #2A2C5A",
"a  c #312E54",
"s  c #2E3253",
"d  c #29315B",
"f  c #323354",
"g  c #393956",
"h  c #31325C",
"j  c #3B3E5D",
"k  c #182662",
"l  c #1E2861",
"z  c #242B61",
"x  c #273463",
"c  c #2B3263",
"v  c #2E366A",
"b  c #333663",
"n  c #3B3C60",
"m  c #343B6B",
"M  c #473340",
"N  c #4C3745",
"B  c #4F3F58",
"V  c #3A464C",
"C  c #3E4456",
"Z  c #4C4C46",
"A  c #45454D",
"S  c #464C48",
"D  c #4D5046",
"F  c #4D5048",
"G  c #565C45",
"H  c #55544C",
"J  c #515C48",
"K  c #424456",
"L  c #45485B",
"P  c #52405F",
"I  c #535253",
"U  c #535B56",
"Y  c #5A5E56",
"T  c #55535C",
"R  c #7D4E5E",
"E  c #5A6543",
"W  c #5A6946",
"Q  c #5A664B",
"!  c #5B6B49",
"~  c #5E714C",
"^  c #586751",
"/  c #5D6B52",
"(  c #626D4A",
")  c #627441",
"_  c #62714D",
"`  c #66794E",
"'  c #6A7B4E",
"]  c #616E51",
"[  c #657451",
"{  c #6A7657",
"}  c #6E7B52",
"|  c #4A4963",
" . c #554365",
".. c #534F63",
"X. c #5A4C66",
"o. c #575C6E",
"O. c #5F4375",
"+. c #555973",
"@. c #6F5961",
"#. c #644677",
"$. c #694E75",
"%. c #644678",
"&. c #6F507E",
"*. c #74537D",
"=. c #78577D",
"-. c #63666C",
";. c #76606A",
":. c #6A7077",
">. c #877F72",
",. c #A5796F",
"<. c #75844F",
"1. c #7F8A52",
"2. c #86934E",
"3. c #8F9B4B",
"4. c #8E9953",
"5. c #929D53",
"6. c #9DAA4D",
"7. c #9BA553",
"8. c #9CAA51",
"9. c #A8B450",
"0. c #8A8073",
"q. c #AE8077",
"w. c #C99179",
"e. c #EF937A",
"r. c #6E4F82",
"t. c #765182",
"y. c #75538A",
"u. c #79568A",
"i. c #82588E",
"p. c #8B5C92",
"a. c #97649A",
"s. c #9B649C",
"d. c #9E699D",
"f. c #A0669F",
"g. c #A56BA3",
"h. c #A76AA5",
"j. c #AA6CA6",
"k. c #B479AF",
"l. c #B67AB0",
"z. c #B97CB3",
"x. c #BF7EB8",
"c. c #D29A82",
"v. c #FE9982",
"b. c #E1A485",
"n. c #F9AF8E",
"m. c #FBB191",
"M. c #FFEEAC",
"N. c #FFF0AF",
"B. c #C982C0",
/* pixels */
"7 7 7 7 7 7 6 7 m m v i i z i d c i i 6 6 7 7 i k 6 7 7 7 7 7 7 ",
"7 7 7 7 7 6 6 c +.:.-.T T T Y o.T A g l 7 6 6 7 7 6 7 7 7 7 7 7 ",
"7 7 7 7 6 4 v +./ 2.7.5.7.4.7.5.` W U j f i 6 6 7 7 7 7 7 7 7 7 ",
"7 7 7 7 , v +.{ 3.6.6.8.8.9.8.<.` ` ( G G L z 6 6 7 7 7 7 7 7 7 ",
"7 7 7 7 , m ] ' 2.7.7.7.7.4.} ^ ] [ ( - ~ ! L c 7 6 7 7 7 7 7 7 ",
"7 7 7 7 4 p Y _ / 1.7.4.5.} ^ ( [ [ ( ! W & Q n 7 6 7 7 7 7 7 7 ",
"7 7 7 7 6 h Y } [ [ [ _ [ [ [ [ [ [ [ W E ) J f i k 7 7 7 7 7 7 ",
"7 7 7 6 , m o.U [ [ ! / / [ [ [ [ ( ! W ! ! E D j z 6 7 7 7 7 7 ",
"7 7 7 7 6 x m h ( ' [ [ [ [ [ [ ~ W E W W W - $ B l 4 7 7 7 7 7 ",
"7 7 7 7 7 6 y t @ ( { [ [ [ [ _ ! E W ! W $ = # t i 7 6 7 7 7 7 ",
"7 7 7 7 4 c F # # E ( [ [ ! W W ! E ! ! E # $ $ $ F c k 7 7 7 7 ",
"7 7 7 7 4 p H - $ # W ~ ! W E W ! ! W $ # # $ $ - H p 4 7 7 7 7 ",
"7 7 7 7 k y Z $ $ # $ E E E E ( E E E # # # E $ # S y k 7 7 7 7 ",
"7 7 7 7 4 y Z = = # # # # # # # E # G # $ # # $ - Z i 4 7 7 7 7 ",
"7 7 7 7 4 i Z - $ $ $ # # G $ # # # $ $ # $ # = - Z i 6 7 7 7 7 ",
"7 7 7 7 k 7 f Z = - = $ # $ $ $ E # $ # # = - = Z f 7 6 7 7 7 7 ",
"7 7 7 7 7 6 6 u F o O = ( = = - = = = = - O o D u 6 6 7 7 7 7 7 ",
"7 7 7 7 7 6 6 8 q a A + + @ @ @ @ @ @ @ $ A q q 7 6 7 7 7 7 7 7 ",
"7 7 7 7 7 7 7 6 0 t.*.X X e e e e e r w X *.t.0 6 7 7 7 7 7 7 7 ",
"7 7 7 7 7 6 8 s $.s.p.O.O.#.#.#.%.%.%.O.O.p.a.$.j 9 6 7 7 7 7 7 ",
"7 7 7 7 7 k : q f.j.a.g.g.g.g.g.g.g.g.g.h.a.j.g.j 3 6 7 7 7 7 7 ",
"7 7 7 7 7 7 2 B u.i.f.x.z.k.k.k.l.l.k.z.x.d.i.u.X.d 6 7 7 7 7 7 ",
"7 7 7 7 4 3 ,.n.g   =.B.x.k.k.k.l.k.k.x.B.=.; | m.q.8 , 7 7 7 7 ",
"7 7 7 7 4 < w.N.e.M 1 u.j.j.g.g.g.g.j.h.y.1 N e.M.c.8 , 7 7 7 7 ",
"7 7 7 7 6 6 @.b.v.R . V &.t.r.r.r.r.y.*.M . >.e.b.;.8 4 7 7 7 7 ",
"7 7 7 7 7 6 5 q q a Z $ K j C C C C j K # M q q q 8 7 7 7 7 7 7 ",
"7 7 7 7 7 7 6 > > y Z * @ @ @ $ @ @ @ @ $ Z y > > 6 7 7 7 7 7 7 ",
"7 7 7 7 7 7 6 8 6 p A & % J I H H I J % % S p 6 7 7 7 7 7 7 7 7 ",
"7 7 7 7 7 7 7 7 6 0 T >.>...h b b h ..0.>.T 0 6 6 7 7 7 7 7 7 7 ",
"7 7 7 7 7 7 7 7 6 2  .g.s. .2 6 7 5  .s.g. .2 6 7 7 7 7 7 7 7 7 ",
"7 7 7 7 7 7 7 7 7 8 u  .P p 6 6 6 6 u P P h 6 7 7 7 7 7 7 7 7 7 ",
"7 7 7 6 7 7 7 7 7 7 7 2 0 7 6 7 8 7 7 2 2 8 6 7 7 7 7 7 7 7 7 7 "
};
