/* XPM */
static char *charidle1668684443[] = {
/* columns rows colors chars-per-pixel */
"32 32 181 2 ",
"   c #0A2631",
".  c #0D2833",
"X  c #3F5A3A",
"o  c #42522F",
"O  c #445738",
"+  c #51593A",
"@  c #5D5B3E",
"#  c #5B6238",
"$  c #16234A",
"%  c #152356",
"&  c #1C2557",
"*  c #1C255C",
"=  c #1F285C",
"-  c #1A2A50",
";  c #242E4E",
":  c #2D2F4F",
">  c #2A334B",
",  c #33354F",
"<  c #3A394E",
"1  c #232A55",
"2  c #2B2E56",
"3  c #21275C",
"4  c #222A5C",
"5  c #2A2E5A",
"6  c #243151",
"7  c #2D3156",
"8  c #2C315D",
"9  c #27305E",
"0  c #333354",
"q  c #33345C",
"w  c #373A5F",
"e  c #3C3C5C",
"r  c #3B3B54",
"t  c #262F60",
"y  c #2C3564",
"u  c #2D3368",
"i  c #343C64",
"p  c #3C3D64",
"a  c #333866",
"s  c #3D405B",
"d  c #3E4169",
"f  c #4C4D45",
"g  c #42444B",
"h  c #4A4B4A",
"j  c #4F5147",
"k  c #4C504E",
"l  c #52504A",
"z  c #585B44",
"x  c #444657",
"c  c #454957",
"v  c #4F425E",
"b  c #434859",
"n  c #464657",
"m  c #50445E",
"M  c #4D5254",
"N  c #525350",
"B  c #5B5E56",
"V  c #55545B",
"C  c #595A5C",
"Z  c #565A5A",
"A  c #634651",
"S  c #4F6141",
"D  c #556445",
"F  c #5D6343",
"G  c #5E6B4C",
"H  c #5C664B",
"J  c #5E6851",
"K  c #5D6459",
"L  c #616541",
"P  c #656B43",
"I  c #626B4C",
"U  c #696D45",
"Y  c #63704E",
"T  c #6E794D",
"R  c #667244",
"E  c #73714A",
"W  c #636E52",
"Q  c #616750",
"!  c #667153",
"~  c #6A7453",
"^  c #6D7A53",
"/  c #717D52",
"(  c #717456",
")  c #454462",
"_  c #4D4561",
"`  c #5B4F61",
"'  c #534665",
"]  c #5D5C6E",
"[  c #585767",
"{  c #524B77",
"}  c #5C5F71",
"|  c #6F4F68",
" . c #6B596F",
".. c #73536B",
"X. c #654D7C",
"o. c #624F77",
"O. c #65517B",
"+. c #64686A",
"@. c #626666",
"#. c #7B626D",
"$. c #73636C",
"%. c #6A7661",
"&. c #7C6879",
"*. c #707376",
"=. c #646772",
"-. c #81575D",
";. c #86666E",
":. c #826464",
">. c #92636B",
",. c #827A6E",
"<. c #6A8048",
"1. c #6C8245",
"2. c #7E8756",
"3. c #818A55",
"4. c #898E57",
"5. c #8D935F",
"6. c #939B56",
"7. c #949C59",
"8. c #989F57",
"9. c #9DA656",
"0. c #9DA459",
"q. c #9FA858",
"w. c #94A054",
"e. c #A5AD55",
"r. c #AAB359",
"t. c #8B8177",
"y. c #898667",
"u. c #A38179",
"i. c #AC9A7C",
"p. c #A19376",
"a. c #D08B71",
"s. c #D69279",
"d. c #FF9C7D",
"f. c #6B4E85",
"g. c #6C5887",
"h. c #6B5589",
"j. c #725C95",
"k. c #846094",
"l. c #896196",
"z. c #8C629B",
"x. c #8F6CA1",
"c. c #956DA5",
"v. c #996EA3",
"b. c #A171A7",
"n. c #A776AD",
"m. c #AE7AB4",
"M. c #B69E81",
"N. c #AC9991",
"B. c #B6A286",
"V. c #BDA386",
"C. c #C08885",
"Z. c #C49789",
"A. c #C09B93",
"S. c #E79883",
"D. c #C3A585",
"F. c #D6A78B",
"G. c #DFB499",
"H. c #E2A886",
"J. c #FFA186",
"K. c #E2A395",
"L. c #FFB29B",
"P. c #CFB8A2",
"I. c #E4B7A4",
"U. c #EBBEA2",
"Y. c #FFBCA6",
"T. c #EEC3A5",
"R. c #F3C5AA",
"E. c #FFC3AC",
"W. c #FFC9AE",
"Q. c #F1C1A6",
"!. c #FECDB1",
"~. c #FFD2B5",
"^. c #FFD8B6",
"/. c #FFD5B9",
"(. c #FFD9BA",
"). c #FFE8A7",
"_. c #C487C5",
"`. c #FFDFC4",
"'. c #FFE2C5",
"]. c #FFEAC6",
"[. c #FFE6CC",
/* pixels */
"4 4 4 3 9 y 4 4 a i a 5 5 y 8 y q 2 1 4 4 & 8 y t 4 4 1 = 4 4 4 ",
"4 4 4 4 4 4 * a =.*.+.V V C V [ V n r t * 4 4 4 4 4 4 4 4 4 4 4 ",
"4 4 4 4 = * u ] 7.9.6.7.6.6.8.7.~ Y K p 0 2 = 4 4 4 4 4 4 4 4 4 ",
"4 4 4 4 * a } ^ e.e.0.q.e.0.r.e./ ~ W Q 4.V * = 4 4 4 4 4 4 4 4 ",
"4 4 4 4 % p @.T 3.7.e.0.0.0.7.2.~ ! I R 6.5.[ 8 4 4 4 4 4 4 4 4 ",
"4 4 4 4 * 8 B T W 3.7.5.6.0.2.J W ~ Y Q H 8.4.e 3 4 4 4 4 4 4 4 ",
"4 4 4 4 * q B ^ ~ ! ^ ! ! ~ ! W ! ~ ~ ! ! T H 0 3 4 4 4 4 4 4 4 ",
"4 4 4 4 % d ] Z / ~ W W W W ! ~ ~ ! W I ~ H z j s y * 4 4 4 4 4 ",
"4 4 4 4 * y p q N I E I D G ~ ~ W H D D ! ! U L n t 3 4 4 4 4 4 ",
"4 4 4 4 4 * 2 < , l P D G G G I ! ~ ^ ^ I I P z g 2 3 3 4 4 4 4 ",
"4 4 4 4 4 5 h F z D S ~ M.y.+ W i.V.V.i.! D H F F h 2 3 4 4 4 4 ",
"4 4 4 4 * 2 f U P o D B.~.y.X p.R.!.~.R.p.D o L U f 2 3 4 4 4 4 ",
"4 4 4 4 = 8 l # o ( B.R.(.V.p.U.(././.!.Q.B.( o # l 5 = 4 4 4 4 ",
"4 4 4 4 * 7 k + @ G.[.~.(.(.(.~.!.W.!.(./.[.G.@ + h 5 * 4 4 4 4 ",
"4 4 4 4 = 0 > ` K.~.(.~.(.(.(.!.W.E.~.(.!.(.~.K.` > 7 3 4 4 4 4 ",
"4 4 4 4 = 4 $  .`.'.~.I...A.(.W.!.`.V.#.I.^.].'. .$ 4 t 4 4 4 4 ",
"4 4 4 4 4 = % ) N.U.'.P.  t.].~.~.[.t.  P.'.R.N.v % 3 4 4 4 4 4 ",
"4 4 4 4 4 4 4 % 1 M.'.T.E D.'.~.~.`.D.E T.`.M.& % 3 4 4 4 4 4 4 ",
"4 4 4 4 4 4 t % ; C.E.J.d.L.W.Y.Y.W.L.J.J.E.M.6 % 3 3 4 4 4 4 4 ",
"4 4 4 4 4 4 1 0 X.;.:.-.>.;.#.#.#...;.>.-.:.&.O.p 5 3 4 4 4 4 4 ",
"4 4 4 4 4 4 $ r n.h.1 i i w w w w w e i i 6 O.n.) - 3 4 4 4 4 4 ",
"4 4 4 4 4 4 6 v x.c.k.l.k.k.k.k.k.k.k.k.l.l.c.x.[ 7 = 4 4 4 4 4 ",
"4 4 4 4 * = u.H.r h._.m.n.n.n.n.n.n.n.n.m._.j._ H.u.4 * 4 4 4 4 ",
"4 4 4 4 * 6 Z.).a...{ g.v.b.v.v.v.v.b.v.g.{ ..s.).Z.5 * 4 4 4 4 ",
"4 4 4 4 * 4 $.F.S.A . g X.f.X.X.X.X.f.o.g . A s.F.$.4 * 4 4 4 4 ",
"4 4 4 4 4 4 y r 0 : f # c s x b b c e c L f , , r 8 4 4 4 4 4 4 ",
"4 4 4 4 4 4 * * % 2 l T ! H Y Y ! Y I ! E N 1 % * = 4 4 4 4 4 4 ",
"4 4 4 4 4 4 = = 4 2 k T 1.%.+.K B +.%.1.<.k 2 = = = 4 4 4 4 4 4 ",
"4 4 4 4 4 4 4 4 3 : V ,.,.] ) q q d ] ,.,.V : = 4 4 4 4 4 4 4 4 ",
"4 4 4 4 4 4 4 4 4 ; ' z.z._ 1 = = ; _ z.z.' : 4 4 4 4 4 4 4 4 4 ",
"4 4 4 4 4 4 4 4 t 3 0 _ v 7 * 4 4 & 7 m v q 4 4 4 4 4 4 4 4 4 4 ",
"4 4 4 = 9 y t 4 1 3 1 ; 2 1 4 4 4 4 3 2 ; 1 4 y y 4 - 3 4 4 4 4 "
};
