/* XPM */
static char *charright1668684444[] = {
/* columns rows colors chars-per-pixel */
"32 32 186 2 ",
"   c #002230",
".  c #304926",
"X  c #3B502E",
"o  c #244930",
"O  c #3D4336",
"+  c #3A5A35",
"@  c #454D3E",
"#  c #475A36",
"$  c #515A39",
"%  c #5B5F3D",
"&  c #48613D",
"*  c #55673A",
"=  c #5C623E",
"-  c #5F713F",
";  c #61653C",
":  c #63693A",
">  c #60723E",
",  c #00144E",
"<  c #0A1D55",
"1  c #0E1D5A",
"2  c #0A214C",
"3  c #122645",
"4  c #12254D",
"5  c #18264A",
"6  c #16284F",
"7  c #1C2A4D",
"8  c #0F225C",
"9  c #132853",
"0  c #1A2853",
"q  c #15235D",
"w  c #18265D",
"e  c #1C285F",
"r  c #1B3355",
"t  c #242B48",
"y  c #2A324D",
"u  c #363A49",
"i  c #252856",
"p  c #2C2D54",
"a  c #242A5B",
"s  c #2A2E5C",
"d  c #2E3253",
"f  c #2A305E",
"g  c #3C3A54",
"h  c #363558",
"j  c #3E3B5C",
"k  c #1A2562",
"l  c #1A2960",
"z  c #242C62",
"x  c #2B3263",
"c  c #2D366A",
"v  c #313A65",
"b  c #3E3B61",
"n  c #343C6B",
"m  c #41345A",
"M  c #443D5B",
"N  c #493F5B",
"B  c #503F5E",
"V  c #443E66",
"C  c #1D5447",
"Z  c #244E45",
"A  c #3C4949",
"S  c #3A436D",
"D  c #4C4C46",
"F  c #47524F",
"G  c #575749",
"H  c #474759",
"J  c #43445D",
"K  c #4E415D",
"L  c #585C57",
"P  c #555759",
"I  c #5A5A5E",
"U  c #675956",
"Y  c #7B5A5E",
"T  c #536543",
"R  c #5B6443",
"E  c #526946",
"W  c #5A6946",
"Q  c #55674A",
"!  c #59634D",
"~  c #5B6B49",
"^  c #5E7248",
"/  c #586355",
"(  c #5C6B51",
")  c #626242",
"_  c #606E4D",
"`  c #617544",
"'  c #677847",
"]  c #63734D",
"[  c #6B7C4D",
"{  c #7C7548",
"}  c #616B51",
"|  c #647451",
" . c #687752",
".. c #6C7856",
"X. c #6C7559",
"o. c #707D53",
"O. c #4D4264",
"+. c #534262",
"@. c #584769",
"#. c #555C6C",
"$. c #444275",
"%. c #454A72",
"&. c #5A4C70",
"*. c #545872",
"=. c #604C6A",
"-. c #7F5D6C",
";. c #6A5477",
":. c #72527C",
">. c #5C6069",
",. c #5C6272",
"<. c #646A61",
"1. c #796468",
"2. c #666A74",
"3. c #7A6570",
"4. c #867B57",
"5. c #895966",
"6. c #985E61",
"7. c #866269",
"8. c #9D6D68",
"9. c #877863",
"0. c #867D6D",
"q. c #8A6874",
"w. c #9B6979",
"e. c #8E7875",
"r. c #A16B68",
"t. c #B27078",
"y. c #6E814C",
"u. c #7C8A53",
"i. c #919D4F",
"p. c #869153",
"a. c #8F9952",
"s. c #929E52",
"d. c #97A153",
"f. c #9BA553",
"g. c #9EAB51",
"h. c #A6AF53",
"j. c #8C8362",
"k. c #AD8D6F",
"l. c #A1817C",
"z. c #A79374",
"x. c #B1A172",
"c. c #C48C79",
"v. c #645A89",
"b. c #635C9A",
"n. c #855B8E",
"m. c #8A5C90",
"M. c #916096",
"N. c #966299",
"B. c #9A639C",
"V. c #975FA3",
"C. c #A770A6",
"Z. c #B376AD",
"A. c #BC7BB6",
"S. c #BEA182",
"D. c #C49F89",
"F. c #CCA88A",
"G. c #DBB188",
"H. c #D6A79D",
"J. c #D2B092",
"K. c #FFA888",
"L. c #E1AB9C",
"P. c #E6B79A",
"I. c #F8B59E",
"U. c #DEBCA5",
"Y. c #EEBBA0",
"T. c #FFB3A7",
"R. c #FFBAA4",
"E. c #FEB4AA",
"W. c #F7BCA8",
"Q. c #FFBCB0",
"!. c #FFC295",
"~. c #FFDC95",
"^. c #FFE898",
"/. c #FAC4A8",
"(. c #FFC2AC",
"). c #FFCAAE",
"_. c #FFCDB1",
"`. c #FFD3B6",
"'. c #FFD5BA",
"]. c #FFDBBB",
"[. c #FFE6BF",
"{. c #FFD0C0",
"}. c #FFDDC1",
"|. c #FFEAC4",
" X c #FFE3C8",
".X c #FFEBCE",
/* pixels */
"w w w w w w w w w w k w q 8 z n x a z a s v n n l 8 w w w w w w ",
"w w w w w w w w w q w e e k S 2.I P #.P H #.2.,.c 8 w w w w w w ",
"w w w w w w w w w q f J M %.#.[ i.f.s.i.| ( ]  .*.c 8 w w w w w ",
"w w w w w w w w 8 z J W ! / / [ h.h.g.g.s.[ ~ ] X.,.x 1 w w w w ",
"w w w w w w q w x H ! ^ ` - T _ u.i.f.g.h.s.o.| ' <.n 1 w w w w ",
"w w w w w w q w b ! - ~ | ] W T ! p.d.a.a.d.p.^ ] L x 1 w w w w ",
"w w w w w w q k b ! - ~ | X.~ ~ ~ | X.| | .. . . .L s 8 w w w w ",
"w w w w w w z M G W ~ W W |  .]  ._ ~ ( _ ( | [ y.L s 8 w w w w ",
"w w w w w q z H ; : R W T ~ ] ] ] | ..| E - } L / >.v 8 w w w w ",
"w w w w w w s u % ; R Q ~ W W W T E E Q ~ $ @ J j *.n 1 w w w w ",
"w w w w 1 x P = = = % = ~ ~ W T & $ +  .S.4.+ E g x e w w w w w ",
"w w w w q s D : = G % % = ~ & + j.F.J.J.)./.x.* u 0 8 w w w w w ",
"w w w w 8 a D ; = = G = ; # W z.P.'. X}.`..XP.A 5 i q w w w w w ",
"w w w w 8 a D : = = ; = # . k. X}.`._._.].[.H.h < q w w w w w w ",
"w w w w 8 a D : ; % ) $ X 4.P.].`.).)._.].[.H.%.8 q w w w w w w ",
"w w q w w w d D : : # ) c.W.`.)._.).].W.q.L.Y.S 1 q w w w w w w ",
"w w w w w q q d G G o % E.{.).`.).).|.U.  D.`.u < k w w w w w w ",
"w w w w w q k w p h A 4.R.Q.R.`.'.`.}./.{ G.H.t < q w w w w w w ",
"w w w w w w w q w < -.T.(.R.E.).}._.I.K.K.r.6 q w w w w w w w w ",
"w w w w w w w w q 2 O.w.7.7.5.Y 1.e.5.6.t.m , k w w w w w w w w ",
"w w w w w w w w w k 4 3 p 7 3 p p i f v r 9 q w w w w w w w w w ",
"w w w w w w w w w w 6 M M.V m V.V.O.&.M.M 6 q w w w w w w w w w ",
"w w w w w w w w w q 6 N N.B V A.A.%.;.Z.K 4 w w w w w w w w w w ",
"w w w w w w w w w k 5 N m.V -.E.E.3.v.Z.K 4 k w w w w w w w w w ",
"w w w w w w w w w k 5 K N.$.8.~.^.l.b.A.K 4 k w w w w w w w w w ",
"w w w w w w w w w q 0 M n.$.5.K.!.e.v.C.K 4 q w w w w w w w w w ",
"w w w w w w w w w w q a g h g =.&.G G g e q w w w w w w w w w w ",
"w w w w w w w w w w q q t O X C Z > = t q w w w w w w w w w w w ",
"w w w w w w w w w w q w d U 9.0.j.X.F p w q w w w w w w w w w w ",
"w w w w w w w w w w w 9 y :.B.B.B.@.5 k w w w w w w w w w w w w ",
"w w w w w w q w w w w w e m +.K B s q q w w w w w w w w q w w w ",
"w w w w w w w w w w w w w 0 7 7 7 q w w w w w w w w w w w w w w "
};
