/* XPM */
static char *charleft1668684444[] = {
/* columns rows colors chars-per-pixel */
"32 32 184 2 ",
"   c #002230",
".  c #304926",
"X  c #3B502E",
"o  c #244930",
"O  c #3D4336",
"+  c #3A5A35",
"@  c #475A36",
"#  c #515A39",
"$  c #5B5F3D",
"%  c #55673A",
"&  c #5C623E",
"*  c #5F713F",
"=  c #61653C",
"-  c #63693A",
";  c #60723E",
":  c #00144E",
">  c #0A1D55",
",  c #0E1D5A",
"<  c #0A214C",
"1  c #122645",
"2  c #12254D",
"3  c #18264A",
"4  c #16284F",
"5  c #1C2A4D",
"6  c #0C2255",
"7  c #0F225E",
"8  c #162856",
"9  c #15235D",
"0  c #18265D",
"q  c #1B3355",
"w  c #242B48",
"e  c #2A324D",
"r  c #363A49",
"t  c #252856",
"y  c #2C2D54",
"u  c #242B5B",
"i  c #2A2E5C",
"p  c #2E3253",
"a  c #2A305E",
"s  c #3C3A54",
"d  c #363558",
"f  c #3E3B5C",
"g  c #1A2562",
"h  c #1A2960",
"j  c #232B62",
"k  c #292D60",
"l  c #2B3363",
"z  c #2D366A",
"x  c #313A65",
"c  c #3E3B61",
"v  c #343C6B",
"b  c #41345A",
"n  c #443D5B",
"m  c #493F5B",
"M  c #503F5E",
"N  c #443E66",
"B  c #1D5447",
"V  c #244E45",
"C  c #3C4949",
"Z  c #3A436D",
"A  c #4C4C46",
"S  c #47524F",
"D  c #575749",
"F  c #474759",
"G  c #43445D",
"H  c #4E415D",
"J  c #53445E",
"K  c #585C57",
"L  c #555759",
"P  c #5A5A5E",
"I  c #675956",
"U  c #7B5A5E",
"Y  c #536543",
"T  c #5B6443",
"R  c #526946",
"E  c #5A6946",
"W  c #55674A",
"Q  c #59634D",
"!  c #5B6B49",
"~  c #5E7248",
"^  c #586355",
"/  c #5C6B51",
"(  c #626242",
")  c #606E4D",
"_  c #617544",
"`  c #677847",
"'  c #63734D",
"]  c #6B7C4D",
"[  c #7C7548",
"{  c #616B51",
"}  c #647451",
"|  c #687752",
" . c #6C7856",
".. c #6C7559",
"X. c #707D53",
"o. c #404767",
"O. c #4D4264",
"+. c #584769",
"@. c #555C6C",
"#. c #444275",
"$. c #454A72",
"%. c #5A4C70",
"&. c #545872",
"*. c #604C6A",
"=. c #7F5D6C",
"-. c #6A5477",
";. c #72527C",
":. c #5C6069",
">. c #5C6272",
",. c #646A61",
"<. c #796468",
"1. c #666A74",
"2. c #7A6570",
"3. c #867B57",
"4. c #895966",
"5. c #985E61",
"6. c #866269",
"7. c #9D6D68",
"8. c #877863",
"9. c #867D6D",
"0. c #8A6874",
"q. c #9B6979",
"w. c #8E7875",
"e. c #A16B68",
"r. c #B27078",
"t. c #6E814C",
"y. c #7C8A53",
"u. c #869153",
"i. c #8F9952",
"p. c #929E52",
"a. c #97A153",
"s. c #9BA553",
"d. c #9EAB51",
"f. c #A6AF53",
"g. c #A5B251",
"h. c #8C8362",
"j. c #AD8D6F",
"k. c #A1817C",
"l. c #A79374",
"z. c #B1A172",
"x. c #C48C79",
"c. c #645A89",
"v. c #635C9A",
"b. c #855B8E",
"n. c #8A5C90",
"m. c #916096",
"M. c #966299",
"N. c #9A639C",
"B. c #9760A3",
"V. c #A770A6",
"C. c #B376AD",
"Z. c #BC7BB6",
"A. c #BD77C1",
"S. c #BEA182",
"D. c #C49F89",
"F. c #CCA88A",
"G. c #DBB188",
"H. c #D6A79D",
"J. c #D2B092",
"K. c #FFA888",
"L. c #E6B79A",
"P. c #F8B59E",
"I. c #DEBCA5",
"U. c #EEBBA0",
"Y. c #FFB3A7",
"T. c #FFBAA4",
"R. c #F7BCA8",
"E. c #FFBCB0",
"W. c #FFC295",
"Q. c #FFDC95",
"!. c #FFE898",
"~. c #FAC4A8",
"^. c #FFC2AC",
"/. c #FFCAAE",
"(. c #FFCDB1",
"). c #FFD3B6",
"_. c #FFD5BA",
"`. c #FFDBBB",
"'. c #FFE6BF",
"]. c #FFD0C0",
"[. c #FFDDC1",
"{. c #FFEAC4",
"}. c #FFE3C8",
"|. c #FFEBCE",
/* pixels */
"0 0 0 0 0 0 9 9 v Z z a u k u i v j , 9 0 0 0 0 0 0 0 0 0 0 0 0 ",
"0 0 0 0 0 0 9 l >.1.@.F L P L @.1.Z g 0 h 0 9 0 0 0 0 0 0 0 0 0 ",
"0 0 0 0 0 7 z &.} } ^ } i.a.a.p.] @.$.n G u 9 9 0 0 0 0 0 0 0 0 ",
"0 0 0 0 , l >...` ! ] p.d.d.g.g.] ^ ^ Q Q G j 7 0 0 0 0 0 0 0 0 ",
"0 0 0 0 , v ,.` ' t.p.f.s.s.a.y.' Y E _ _ Q F l 0 9 0 0 0 0 0 0 ",
"0 0 0 0 7 i K ' } u.a.i.i.a.y.Q Y T ' } ! ; Q c 0 9 0 0 0 0 0 0 ",
"0 0 0 0 9 a K | } | } } } } } } E !  .} ! * Q c g 0 0 0 0 0 0 0 ",
"0 0 0 0 , a K t.t.} / } / ! { } } } } ! E ~ E D n j 9 0 0 0 0 0 ",
"0 0 0 0 , x :.^ P ! E R }  .} ~ ' ' ! E E E - & G u 7 0 0 0 0 0 ",
"0 0 0 0 , Z &.d n A % ! R R R Y E T E ! W & = $ r i 0 0 0 0 0 0 ",
"0 0 0 0 0 0 l r Y + 3.S.} + @ Y Y E ! E & $ & & & L i 7 0 0 0 0 ",
"0 0 0 0 0 9 t r % z.~./.L.J.F.h.+ @ ) T $ $ & & - D i , 0 0 0 0 ",
"0 0 0 0 0 9 0 3 C L.|.).`.}.`.L.l.! @ $ T $ $ & & A t 9 0 0 0 0 ",
"0 0 0 0 0 0 9 , d H.'.).)./.(.[.}.j.. @ $ = D - = A u 7 0 0 0 0 ",
"0 0 0 0 0 0 9 7 Z H.'.'./././.).`.U.X.X # ( ( = - A i 7 0 0 0 0 ",
"0 0 0 0 0 0 9 6 Z ~.H.0.R.`././.(._.T.x.( @ - = A p 0 9 0 0 0 0 ",
"0 0 0 0 0 0 g > d ).D.  I.{././.(.(.].Y.$ o D D y 9 9 0 0 0 0 0 ",
"0 0 0 0 0 0 9 > w H.G.[ ~.'.).`._.T.E.T.3.C d y 9 0 0 0 0 0 0 0 ",
"0 0 0 0 0 0 0 0 9 5 e.K.K.P.).`.^.Y.T.^.Y.=.> 9 9 0 0 0 0 0 0 0 ",
"0 0 0 0 0 0 0 0 9 : b r.5.4.0.<.U 6.6.6.q.O.< 9 0 0 0 0 0 0 0 0 ",
"0 0 0 0 0 0 0 0 0 0 9 q Z q 5 y y 1 3 y 1 8 g 0 0 0 0 0 0 0 0 0 ",
"0 0 0 0 0 0 0 0 0 0 2 n m.%.o.B.B.f O.m.n 2 g 0 0 0 0 0 0 0 0 0 ",
"0 0 0 0 0 0 0 0 0 9 1 O.C.-.+.A.A.O.O.M.H 4 9 0 0 0 0 0 0 0 0 0 ",
"0 0 0 0 0 0 0 0 0 0 2 H C.c.2.Y.Y.<.N n.m 4 0 0 0 0 0 0 0 0 0 0 ",
"0 0 0 0 0 0 0 0 0 g 2 J Z.v.k.!.Q.7.#.M.M 4 9 0 0 0 0 0 0 0 0 0 ",
"0 0 0 0 0 9 0 0 0 0 2 m V.c.w.W.K.4.#.b.m 3 0 0 0 0 0 0 0 0 0 0 ",
"0 0 0 0 0 0 0 0 0 0 9 t f D D *.M b d s u 9 0 0 0 0 0 0 0 0 0 0 ",
"0 0 0 0 0 0 0 0 0 0 9 9 w $ * V B @ O w 9 9 0 0 0 0 0 0 0 0 0 0 ",
"0 0 0 0 0 0 0 0 0 0 9 0 y S ..9.9.8.I p 0 9 0 0 0 0 0 0 0 0 0 0 ",
"0 0 0 0 0 0 0 0 0 0 0 0 9 5 +.M.M.N.;.e 8 9 0 0 0 0 0 0 0 0 0 0 ",
"0 0 0 0 0 0 0 0 0 0 0 0 9 9 i M M J f 9 9 0 0 0 0 0 0 0 0 0 0 0 ",
"0 0 0 0 0 0 0 0 0 0 0 0 0 9 8 t 5 5 t 9 9 0 0 0 0 0 0 0 0 0 0 0 "
};
