/* XPM */
static char *exitlocked1668684442[] = {
/* columns rows colors chars-per-pixel */
"32 32 124 2 ",
"   c #000002",
".  c #01030C",
"X  c #020312",
"o  c #050A15",
"O  c #02041B",
"+  c #060C1D",
"@  c #020523",
"#  c #050B26",
"$  c #090E22",
"%  c #03052C",
"&  c #060D2B",
"*  c #0D182B",
"=  c #060E37",
"-  c #080E35",
";  c #091135",
":  c #0D173D",
">  c #111E30",
",  c #121A3F",
"<  c #13212E",
"1  c #19242E",
"2  c #152136",
"3  c #1B2A34",
"4  c #162238",
"5  c #1F3038",
"6  c #263835",
"7  c #2A3C32",
"8  c #27393A",
"9  c #2B3F3E",
"0  c #070D43",
"q  c #0B1543",
"w  c #0F1841",
"e  c #0B144A",
"r  c #0F1B49",
"t  c #101A43",
"y  c #121C4E",
"u  c #0F1953",
"i  c #0B135A",
"p  c #121E54",
"a  c #131F5A",
"s  c #192442",
"d  c #1A2946",
"f  c #17264B",
"g  c #1C2B4B",
"h  c #122050",
"j  c #182656",
"k  c #15225C",
"l  c #18265D",
"z  c #1A285E",
"x  c #233442",
"c  c #223359",
"v  c #172760",
"b  c #182564",
"n  c #1A2963",
"m  c #1D2B6B",
"M  c #1F3067",
"N  c #1F2E73",
"B  c #213365",
"V  c #273B65",
"C  c #23326B",
"Z  c #25396C",
"A  c #2A3D6C",
"S  c #243770",
"D  c #2A3E73",
"F  c #203178",
"G  c #2D4246",
"H  c #2E4349",
"J  c #31464C",
"K  c #314458",
"L  c #3C555D",
"P  c #2E446E",
"I  c #385263",
"U  c #2F4574",
"Y  c #2E4379",
"T  c #314675",
"R  c #324A76",
"E  c #334778",
"W  c #344C7B",
"Q  c #3C5573",
"!  c #3A527F",
"~  c #415E63",
"^  c #435E76",
"/  c #436167",
"(  c #456269",
")  c #4D6A7D",
"_  c #304580",
"`  c #364F82",
"'  c #375184",
"]  c #395283",
"[  c #3A5488",
"{  c #425F80",
"}  c #45618F",
"|  c #48668F",
" . c #4F6E8C",
".. c #55778D",
"X. c #4E6D94",
"o. c #517396",
"O. c #53769A",
"+. c #5D83A4",
"@. c #648CAD",
"#. c #668FB5",
"$. c #6B94B7",
"%. c #6F99B7",
"&. c #74A3AE",
"*. c #76A5B1",
"=. c #7BACB5",
"-. c #7BABBC",
";. c #7FB0BD",
":. c #7BACC1",
">. c #84B6BB",
",. c #81B1C7",
"<. c #81B3C9",
"1. c #85B7D0",
"2. c #86B9D2",
"3. c #90C5D4",
"4. c #94CBDF",
"5. c #8FC6E0",
"6. c #95CDE1",
"7. c #99D3E5",
"8. c #96D0EB",
"9. c #9AD6EC",
"0. c #9DD9F2",
"q. c #A2DEEF",
"w. c #A2DEF6",
"e. c #A7E6F3",
/* pixels */
"l l l l l l l l l l l l l l l z z l l l l l l l l l l l l l l l ",
"l l l l l l l l l l l l l l l l l l l l l l l l l l l l l l l l ",
"l l l l l l l l l l l l l l l l l l l l l l l l l l l l l l l l ",
"l l l l l l l l l l l l l l l l l l l l l l l l l l l l l l l l ",
"l l l l l l l l l l l l l l l l l l l l l l l l l l l l l l l l ",
"l l l l l l l l l l l l l l l l l l l l l l l l l l l l l l l l ",
"l l l l l l l l l l l l l l l l l l l l l l l l l l l l l l l l ",
"l l l l l l l l l l l l l l l l l l l l l l l l l l l l l l l l ",
"l l l l l l l l l l l l l l l l l l l l l l l l l l l l l l l l ",
"l l l l l l l l l l l l l l l l l l l l l l l l l l l l l l l l ",
"l l l l l l l l l l l l l l l l l l l l l l l l l l l l l l l l ",
"l l l l l l l l l l l l l l l l l l l l l l l l l l l l l l l l ",
"l l l l l l l l l l l l l l l l l l l l l l l l l l l l l l l l ",
"l l l l l l l l l l l l l l l l l l l l l l l l l l l l l l l l ",
"l l l l l l l l l l l l l l l l l l l l l l l l l l l l l l l l ",
"l l l l l l l l l l l l l l l l l l l l l l l l l l l l l l l l ",
"l l l l l l l l l l l l l l l l l l l l l l l l l l l l l l l l ",
"l l l l l l l l l l l l l l l l l l l l l l l l l l l l l l l l ",
"l l v b v n v n n n b n z l l l l l l l v v n n n n n n n n l l ",
"l n k 0 r h y u y y y y l n l l l l l l e q y y p y y y y a n l ",
"m p @ 8 3 o + + + + + + & l n l l v n - < 8 + O + + + + + + y n ",
"p + ( 2.o.M U ` E P T T * & l v z l = 5 :.*.A A W W T T W d O p ",
"O 6 q.$.Z ` P d D E T ` E X - m n e . =.5.W D ` g c _ E W [ < # ",
"@ 9 9.+.M V $ . @ p C E W o ; n n e o ;.2.D Z s . X q n A ] 4 & ",
"@ 6 4.@.D $ @ F O @ b D R O w N m u o &.<.] f . v w . a C ` > - ",
"@ 8 6.@.C X   %   X i n Z     @ @ .   &.2.W f X v t . a C ` > & ",
"@ 8 4.+.W ^ H G J Q } X.o.I G H H x x -.<.] f X l w X a C ] 4 & ",
"@ 8 4.o.X.q.w.0.0.7.4.3.3.9.0.9.e.8.#.:.-.' g . v w . l C ] 4 & ",
"@ 8 4.+.! ../ I ~  .O.+.@.) ~ ~ ( L K -.,.` f X z w X a C ` , & ",
"@ 8 6.@.Z O   O   O i M Z     O O     *.1.! f X l w X a C ` 2 & ",
"X 7 e.%.U + O S X O b Y R   - m m e . >.6.[ f   l :   l S [ 1 O ",
"q g o.! M y t b w r v B B , p v v a , { | Z j : l y : l n Z f t "
};
