/* XPM */
static char *exit1668684443[] = {
/* columns rows colors chars-per-pixel */
"32 32 89 1 ",
"  c #010104",
". c #03040D",
"X c #07090A",
"o c #090B0C",
"O c #010216",
"+ c #0B0E15",
"@ c #04051A",
"# c #06081A",
"$ c #0C0F18",
"% c #0C1016",
"& c #0E121A",
"* c #101413",
"= c #12161D",
"- c #14191F",
"; c #060720",
": c #0B0D26",
"> c #0C0E28",
", c #0E1127",
"< c #0F122A",
"1 c #111521",
"2 c #151921",
"3 c #161C2A",
"4 c #181F2D",
"5 c #0E113D",
"6 c #141735",
"7 c #131837",
"8 c #11153E",
"9 c #131838",
"0 c #1B212F",
"q c #1E2533",
"w c #212937",
"e c #121741",
"r c #151945",
"t c #161B49",
"y c #181E4E",
"u c #191F51",
"i c #1E2552",
"p c #202756",
"a c #212957",
"s c #22275B",
"d c #222A5C",
"f c #242C64",
"g c #273064",
"h c #2A3364",
"j c #27306A",
"k c #28326C",
"l c #2E3969",
"z c #323E6E",
"x c #344071",
"c c #55696E",
"v c #556A70",
"b c #5C7075",
"n c #5C727A",
"m c #60767C",
"M c #4C5D82",
"N c #4F6186",
"B c #506286",
"V c #54678D",
"C c #566A8F",
"Z c #5C728D",
"A c #576B90",
"S c #596D92",
"D c #5F7590",
"F c #637980",
"G c #667D8A",
"H c #687F8D",
"J c #617793",
"K c #627997",
"L c #657C9A",
"P c #68809E",
"I c #6A83A2",
"U c #7A96AD",
"Y c #7B97B0",
"T c #7B98B0",
"R c #85A4B3",
"E c #88A7B6",
"W c #8BABBB",
"Q c #8FAFC1",
"! c #92B3C5",
"~ c #94B6C8",
"^ c #96B9CB",
"/ c #99BCCD",
"( c #9BBED3",
") c #9DC1D3",
"_ c #A0C6D7",
"` c #A4C9DE",
"' c #A6CDE1",
"] c #A8CEE3",
"[ c #AAD0E5",
/* pixels */
"iaf>v(Vl29fdfddddddfi#n)Bl%<faai",
"ddf>b]Sg.;ittttttttyt m[Vl%,jadd",
"idf>b]Sl2 $$$+++++&&X P`Vl%<kddd",
"adf>b'MK~RRRRRRRRRRRRnU/Vl%<jddd",
"isf>b`ML`/^/^^^/^^^//IU/Cl%<jddd",
"ssf>b'Axw%--222---2-=oP`Cl%<jddd",
"saf>b]Sg.Or88888888e5 n[Vl%<jddd",
"idf>b]Az19kgfffgfffgf@m[Vl%<jddd",
"adf>b]Az16jfdffdfgfff#m'Vl%<jddi",
"sdf>b]Sg.;utttttrrrtr m'Vl%<jddf",
"iff>b]Az3.$$$&$&&&&&+ F'Vl+<jddd",
"sif>b`ML^WREREEREREWEZU)Vl+<jddd",
"iff>n'ML_^~~~~~~~~~^^PU/Cl%<jddd",
"idf>v'Azq*-1=-------&oP_Cl%<jddd",
"adf>n'Sj.Ore8e8e8e8e5 n'Vl%<kdif",
"adf>b'Sl=9kffffgfgfff#F'Vl%<jddd",
"iif:b]Sl19kffdfffgfgi#F]Cl%<jddd",
"sff:b]SgO@utrrtrrrrtr n[Cl%<jdfi",
"iff:b]Az3X$$*=&&&&&&oXP`Vl+<jddd",
"sdf>b'ML/WEWWWWWWWWWEFU/Vl%<jddd",
"idf>b`ML_~!!Q!!Q!!!~~LU/Cl%<jddd",
"sdf>b'Azwo------&-=-&XP`Vl%<jddd",
"iff:b]SgOOteeeeerr8r5 n[Vl%<kddi",
"sif>b]Sl=6kffgfffffgf#F]Vl%<jddf",
"iff:n'Al16kgfffffffgd#m]Vl%<jdda",
"idf>b'SgO@yrrerrrrrrr m[Vl%<jddd",
"adf>n'Az4o&&*&&&*===$ G`Vl+<jdda",
"sdf>b'ML(QWWQQWQWWW!WKT/Vl%<jdds",
"sdf>b'MK_!QQQQQQQQQ!WPT/Vl&<jdds",
"isf>b'Az4o===1*-====%.G`Vl+<jdss",
"ddf>n[Sg.@yrreteeerre m[Vl+:jsdd",
"iss>c(Bl16fddsddddsfa#n(Bh$1gpap"
};
