/* XPM */
static char *money11668684443[] = {
/* columns rows colors chars-per-pixel */
"32 32 176 2 ",
"   c #000102",
".  c #040C05",
"X  c #01010B",
"o  c #001305",
"O  c #0C1202",
"+  c #171E02",
"@  c #020213",
"#  c #04041C",
"$  c #011318",
"%  c #002D04",
"&  c #1D2500",
"*  c #003807",
"=  c #003408",
"-  c #00271B",
";  c #003812",
":  c #00321F",
">  c #003A18",
",  c #293B11",
"<  c #030424",
"1  c #030B22",
"2  c #08072A",
"3  c #090C2D",
"4  c #031223",
"5  c #040737",
"6  c #0C0C34",
"7  c #0C0C3A",
"8  c #0B1034",
"9  c #0D143C",
"0  c #0D183D",
"q  c #003724",
"w  c #003925",
"e  c #0C2439",
"r  c #232831",
"t  c #00420B",
"y  c #004B09",
"u  c #004113",
"i  c #005214",
"p  c #00591B",
"a  c #006617",
"s  c #00492E",
"d  c #005136",
"f  c #007726",
"g  c #006E38",
"h  c #5D730E",
"j  c #465528",
"k  c #51592E",
"l  c #5F7727",
"z  c #667D24",
"x  c #08034B",
"c  c #0F1443",
"v  c #0F1649",
"b  c #0A1948",
"n  c #111342",
"m  c #111946",
"M  c #111C4C",
"N  c #18184F",
"B  c #151D54",
"V  c #1A1C55",
"C  c #1A1E5E",
"Z  c #08354D",
"A  c #042951",
"S  c #002E5E",
"D  c #172156",
"F  c #17245B",
"G  c #18265D",
"H  c #18285F",
"J  c #183A59",
"K  c #000E61",
"L  c #001F72",
"P  c #192760",
"I  c #1A2964",
"U  c #1C2B69",
"Y  c #003666",
"T  c #0A2772",
"R  c #053F70",
"E  c #153772",
"W  c #00494A",
"Q  c #164157",
"!  c #005D58",
"~  c #006746",
"^  c #00704D",
"/  c #007652",
"(  c #024464",
")  c #04486C",
"_  c #005772",
"`  c #005B77",
"'  c #364766",
"]  c #00626D",
"[  c #00756A",
"{  c #007D6A",
"}  c #006777",
"|  c #3B6E7A",
" . c #466457",
".. c #536558",
"X. c #008125",
"o. c #008B2F",
"O. c #008534",
"+. c #009332",
"@. c #009A3B",
"#. c #768D25",
"$. c #7A9436",
"%. c #008F5A",
"&. c #00945E",
"*. c #00A947",
"=. c #00B644",
"-. c #00BC43",
";. c #00B64A",
":. c #00BC55",
">. c #00BC5B",
",. c #008466",
"<. c #008C66",
"1. c #008D6D",
"2. c #009267",
"3. c #00996E",
"4. c #009E73",
"5. c #00A56E",
"6. c #00BB61",
"7. c #00A473",
"8. c #00AE78",
"9. c #00B57C",
"0. c #628858",
"q. c #00C344",
"w. c #00C54B",
"e. c #00CC4C",
"r. c #00D34A",
"t. c #00DA4E",
"y. c #00C652",
"u. c #00CE54",
"i. c #00D254",
"p. c #00DB55",
"a. c #00D35D",
"s. c #00E745",
"d. c #00E44B",
"f. c #00E256",
"g. c #00E65A",
"h. c #00EB59",
"j. c #00F559",
"k. c #00C569",
"l. c #00EA67",
"z. c #00FF6E",
"x. c #4FD867",
"c. c #4FD872",
"v. c #65DA69",
"b. c #74DF6E",
"n. c #79E06E",
"m. c #78F678",
"M. c #8AA935",
"N. c #83A33B",
"B. c #8BB03A",
"V. c #96B537",
"C. c #9BC65F",
"Z. c #B6D555",
"A. c #87C460",
"S. c #90CB67",
"D. c #ACCA6D",
"F. c #A9D771",
"G. c #8DE778",
"H. c #98E975",
"J. c #86FC7C",
"K. c #B5EA7D",
"L. c #BCED7D",
"P. c #A6F979",
"I. c #C2ED7F",
"U. c #DEFB79",
"Y. c #00AE81",
"T. c #00C190",
"R. c #C7ED83",
"E. c #D6EF85",
"W. c #CDF386",
"Q. c #C5F589",
"!. c #CBFD8B",
"~. c #D4FD8D",
"^. c #D9F989",
"/. c #E3FC8B",
"(. c #EBFE96",
"). c #FFFFA3",
/* pixels */
"G G G G G G G G G G G G G G G G G G G G G G G G G G G G G G G G ",
"G G G G G G G G G G G G G G G G G G G G G G G G G G G G G G G G ",
"G G G G G G G G G G G G G G G G G G G G G G G G G G G G G G G G ",
"G G G G G G G G G G G G G G G H I I P P G G G G G G G G G G G G ",
"G G G G G G G G G G G G G G G M b M m v F G P G G G G G G G G G ",
"G G G G G G G G G G G G G U M @         n U U P G G G G G G G G ",
"G G G G G G G G G G G G G P M     * y = 4 n 9 c G P G P G G G G ",
"G G G G G G G G G G G G G U M   % *.f.=.>     @ B U H G G G G G ",
"G G G G G G G G G G G G F U M   = p.z.g.o.* i > 2 5 3 < 8 M H G ",
"G G G G G G G G G G G G G U c   * e.h.i.w.e.p.@.o         9 P H ",
"G G G G G G G G G G G P P 7 X u +.q.e.w.i.g.l.e.f a +.t   3 U H ",
"G G G G G G G G G H P P m X * :.l.i.w.w.q.e.e.r.t.f.u.i   9 I G ",
"G F G G G G G G G P U 5   k S.m.J.G.a.-.-.q.q.d.j.q.p $ c D G G ",
"G G G G H G P G H H v X , S.(.!.E.^.n.u.i.a.y.>.k.g   # P U G G ",
"G G G H P P P U U 5   j F.~.~.W.I.E.K.H.P.G.3.] ` e   # P P G G ",
"G G G 0 6 7 9 c c @ = A.).(.R.L.K.K.Q.~.U.D.| L x # @ 0 G G G G ",
"F I F             ; -.m.(.E.L.L.L.L.!.W.Z.0.' x X X M I H G G G ",
"P I B   y f a y t +.g.l.v.x.b.L./.^.L.C.B.z r @ @ 0 I H G G G G ",
"G I V   X.p.u.;.w.e.r.u.;.q.u.P.E.R.C.$.M.$.+   M U G G G G G G ",
"G P P 3 ; O.6.l.h.s.e.q.;.-.e.h.c.c.0.#.V.N.&   D I G G G G G G ",
"G G I C X   ! 4.:.w.w.e.r.r.r.r.,.)  .M.V.l O @ D I G G G G G G ",
"F G P G X   b _ [ <.5.y.s.s.r.&.( K ..V.h . 1 B G G G G G G G G ",
"F H I n $ $ A R _ } [ %.*.*.%.) T T  .z & X M U G G G G G G G D ",
"F I D X s / [ [ { [ ] ( J Q J P E ` Z O # D P G G G G G G G H D ",
"D P V   / T.8.5.7.1.] Y S S Y E ) W $ @ m U H G G G G G F G G D ",
"F U V   ~ Y.4.2.2.1.1.{ { ,.{ } Z   @ D I G G G G G G G G G H D ",
"D G F 1 : d s w w ^ 8.8.8.9.3.W # @ m I H G G G G G G G G G G D ",
"G G P B @         q <.3.<.4.^ . @ D U G G G G G G G G G G G G G ",
"D G H H n < 3 8 6 $ : : : q - $ N P P G G G G G G G G G G G G D ",
"F G G G G G F U U 8         @ M U G F G G G G G G G G G G G G F ",
"G G G G G G G G G P V D V D F F G G P F H G G G G G G G G G G G ",
"F G I I G G F G F G U I U I P F P G G P I G G D G F G G G G G F "
};
