/* XPM */
static char *walls1668684443[] = {
/* columns rows colors chars-per-pixel */
"32 32 183 2 ",
"   c #030409",
".  c #03060B",
"X  c #0E030D",
"o  c #030B0E",
"O  c #06080F",
"+  c #11020D",
"@  c #13000E",
"#  c #030410",
"$  c #060712",
"%  c #0D0410",
"&  c #0D0411",
"*  c #0E0411",
"=  c #0F0411",
"-  c #0D0412",
";  c #020A11",
":  c #040910",
">  c #070812",
",  c #070913",
"<  c #070915",
"1  c #080A13",
"2  c #090916",
"3  c #13171C",
"4  c #13171E",
"5  c #14181E",
"6  c #15191F",
"7  c #161A21",
"8  c #3B0020",
"9  c #3A0023",
"0  c #390025",
"q  c #3A0025",
"w  c #3F0027",
"e  c #201D23",
"r  c #360532",
"t  c #370334",
"y  c #370335",
"u  c #370435",
"i  c #370436",
"p  c #390331",
"a  c #360C3D",
"s  c #370E3F",
"d  c #380A39",
"f  c #380D38",
"g  c #36103C",
"h  c #36123D",
"j  c #1B2127",
"k  c #121647",
"l  c #321A46",
"z  c #1E2451",
"x  c #1E2652",
"c  c #1E2653",
"v  c #1F2653",
"b  c #1E2558",
"n  c #1F2D5F",
"m  c #202753",
"M  c #202758",
"N  c #212B5C",
"B  c #232B5C",
"V  c #232C5C",
"C  c #242D5D",
"Z  c #252D5D",
"A  c #242D5E",
"S  c #252D5E",
"D  c #252D5F",
"F  c #242E5E",
"G  c #252E5F",
"H  c #262F5F",
"J  c #282C5B",
"K  c #1F2660",
"L  c #212F60",
"P  c #232B64",
"I  c #232C64",
"U  c #242C64",
"Y  c #252E64",
"T  c #2D2D6A",
"R  c #223263",
"E  c #233363",
"W  c #263060",
"Q  c #273060",
"!  c #243364",
"~  c #283160",
"^  c #283261",
"/  c #293261",
"(  c #293362",
")  c #2E3866",
"_  c #2E3966",
"`  c #2F3966",
"'  c #2F3A67",
"]  c #23326A",
"[  c #323466",
"{  c #303B67",
"}  c #313D69",
"|  c #323E69",
" . c #333F6A",
".. c #343F6B",
"X. c #452A51",
"o. c #33406A",
"O. c #34406A",
"+. c #34406B",
"@. c #34416B",
"#. c #36426B",
"$. c #34406C",
"%. c #34416C",
"&. c #35416C",
"*. c #35426C",
"=. c #35426D",
"-. c #36436C",
";. c #36426D",
":. c #36436D",
">. c #37436D",
",. c #36436E",
"<. c #37436E",
"1. c #36446D",
"2. c #37446D",
"3. c #36446E",
"4. c #37446E",
"5. c #37456E",
"6. c #38446E",
"7. c #39456E",
"8. c #38456F",
"9. c #39456F",
"0. c #38466F",
"q. c #39466F",
"w. c #334570",
"e. c #334672",
"r. c #344770",
"t. c #364772",
"y. c #394670",
"u. c #394770",
"i. c #3A4770",
"p. c #3A4771",
"a. c #344872",
"s. c #354872",
"d. c #354873",
"f. c #364A74",
"g. c #3A4870",
"h. c #3A4871",
"j. c #3B4871",
"k. c #3A4971",
"l. c #3B4971",
"z. c #3A4972",
"x. c #3C4971",
"c. c #3C4972",
"v. c #3C4A72",
"b. c #3D4B72",
"n. c #3B4D75",
"m. c #384C76",
"M. c #394C76",
"N. c #334F79",
"B. c #475770",
"V. c #526585",
"C. c #546787",
"Z. c #556988",
"A. c #556A89",
"S. c #566A89",
"D. c #576A89",
"F. c #576B8A",
"G. c #576C8A",
"H. c #586B8A",
"J. c #586C8A",
"K. c #586C8B",
"L. c #596D8C",
"P. c #596E8C",
"I. c #5A6E8C",
"U. c #5A6F8C",
"Y. c #5B718E",
"T. c #5B718F",
"R. c #5C718E",
"E. c #5D7390",
"W. c #5E7490",
"Q. c #6C85AC",
"!. c #83A1B1",
"~. c #83A2B3",
"^. c #84A2B3",
"/. c #89A8B7",
"(. c #85A4B9",
"). c #90B2C4",
"_. c #9ABDD3",
"`. c #9ABED3",
"'. c #9ABED4",
"]. c #9BBFD5",
"[. c #A0C4D7",
"{. c #A1C6DB",
"}. c #A5D1E4",
/* pixels */
"O 3 j 6 3 6 3 7 6 3 7 4 4 6 6 3 6 4 6 4 6 3 7 4 4 6 6 3 6 7 3 o ",
"  B.(./.~.^.~.~.^.^.~.~.^.^.^.^.~.^.^.^.^.^.~.~.^.^.^.^.~.).^.7 ",
"# / Q.[.{.].].].].].].].].].].].].].].].].].].].].].].].].}.].X.",
"$ k Y V.E.D.D.H.H.D.H.H.H.D.D.G.D.G.D.H.G.D.H.K.H.D.H.H.D.R.H.[ ",
"1 z P M } :.} { ' } :.} O.} } } o.} ..} O.O.} } O.} } _ ..#...W ",
", z P b } :.O.:.:.:.} :.:...:.:...:.} :.} :.:...O.:.O.:...O.O.W ",
", z U N :.4.q.U.R.y.:.:.:.:.4.4.4.4.4.4.q.q.:.:.:.4.G.W.j.:.4.W ",
", m P N :.:.4.D.H.y...:.q.>.4.4.4.4.4.4.:.:.:.y.o.4.C.U.j.:.4.W ",
", v Y N =.j.4.W W :.t.:.4.4.4.4.4.4.4.4.4.4.4.4.y.4.W L :.x.q.H ",
", v U B =.j.4._ _ :.q.>.4.4.4.4.4.4.4.4.4.4.4.4.q.4._ _ :.y.4.W ",
", v U B :.y.4.j.y.:.:.q.4.4.4.4.4.4.4.4.4.4.4.4.4.4.j.j.4.y.4.W ",
", m U B :.y.4.:.y.q.:.:.4.4.4.4.4.4.4.4.4.4.4.4.4.4.4.4.4.y.4.W ",
", v U B :.y.q.:.:.4.4.4.4.4.4.4.4.4.4.4.4.4.4.4.4.4.4.4.4.y.4.W ",
", v U B :.y.>.>.4.4.4.4.4.4.4.4.4.4.4.4.4.4.4.4.4.4.4.4.4.y.4.W ",
", v U B :.y.:.>.4.4.4.4.4.4.4.4.4.4.4.4.4.4.4.4.4.4.4.4.4.y.4.W ",
", v U N :.y.:.t.4.4.4.4.4.4.4.4.4.4.4.4.4.4.4.4.4.4.4.4.4.y.4.W ",
"1 z U B :.j.:.y.:.y.y.:.y.:.:.:.4.4.4.4.4.4.4.4.4.4.4.4.4.y.4.W ",
", m U B :.y.:.:.:.:.:.:.:.:.y.y.4.4.4.4.4.4.4.4.4.4.4.4.4.y.4.W ",
", v U B =.t.q.:.y.:.:.y.:.y.:.:.4.4.4.4.4.4.4.4.4.4.4.4.4.y.4.W ",
", v U N :.y.:.:.y.:.:.y.:.:.y.:.4.4.4.4.4.4.4.4.4.4.4.4.4.y.4.W ",
", v U N :.t.:.q.:.y.:.:.:.y.:.:.4.4.4.4.4.4.4.4.4.:.:.:.4.y.4.W ",
", v U B :.y.>.O...:.:.y.:.y.:.y.4.4.4.4.4.4.4.4.4.:.=.=.:.y.4.! ",
"$ m U B :.y.:.4.:.q.:.y.:.:.q.>.4.4.4.4.4.4.4.4.4.4.4.4.4.y.4.W ",
"1 m U B :.:.t.D.U.y...:.y.:.:.:.4.4.4.4.4.4.4.4.=.4.D.T.x.w.:.h ",
"$ m U B :.:.y.K.K.y.O.4.4.4.>.q.4.4.4.q.4.4.4.4.o.4.D.T.j.w.4.g ",
", v Y B :.y.:./ / :.y.4.4.4.>.q.4.4.4.q.4.4.4.4.4.4./ / =.j.4.J ",
", v P N 4.x.y.' { q.j.q.q.q.q.q.q.q.q.q.q.q.q.q.j.q.{ _ q.m.4.l ",
", v P L w.f.t.m.m.a.a.a.a.a.a.a.a.a.a.a.a.a.a.a.a.a.m.m.t.N.r.f ",
"1 z ] B H L H H H H C C C C H H H H C C F F F F C C C C H R H a ",
"1 L T t p t t t t t u u u u t t t r u u u u u u u u u u t t t r ",
"; z l 8 8 w 0 0 0 0 w 0 0 0 0 0 w 0 0 0 0 w 0 w 0 0 0 w 0 w 8 @ ",
", 2 X X - & & & & & & = & & & & & = & & & & & & & & & & & & &   "
};
